<svg xmlns="http://www.w3.org/2000/svg" viewBox="0 0 209.1 181.1"><defs><style>.cls-1{fill:#fff;}</style></defs><title>图层 2</title><g id="图层_2" data-name="图层 2"><g id="图层_1-2" data-name="图层 1"><g id="图层_2-2" data-name="图层 2"><g id="图层_1-2-2" data-name="图层 1-2"><g id="图层_2-2-2" data-name="图层 2-2"><g id="图层_1-2-2-2" data-name="图层 1-2-2"><polygon class="cls-1" points="88.9 54.3 34 149.4 0 90.5 20.9 54.3 88.9 54.3"/><path class="cls-1" d="M169.9,22.6,133.3,86H81L99.3,54.4A10.53,10.53,0,1,0,95.5,40a10.71,10.71,0,0,0-1.4,5.3h-68L52.3,0H156.8Z"/><path class="cls-1" d="M182.9,135.8l-26.1,45.3H52.3l-13-22.6L75.9,95.1H128l-18.2,31.6a10.55,10.55,0,1,0,5.3,9.2Z"/><polygon class="cls-1" points="209.1 90.5 188.2 126.7 120.2 126.7 175.1 31.7 209.1 90.5"/></g></g></g></g></g></g></svg>