<svg xmlns="http://www.w3.org/2000/svg" viewBox="0 0 486.5 181.1"><defs><style>.cls-1{fill:#fff;}</style></defs><title>资源 1</title><g id="图层_2" data-name="图层 2"><g id="图层_1-2" data-name="图层 1"><g id="图层_2-2" data-name="图层 2"><g id="图层_1-2-2" data-name="图层 1-2"><polygon class="cls-1" points="88.9 54.3 34 149.4 0 90.5 20.9 54.3 88.9 54.3"/><path class="cls-1" d="M169.9,22.6,133.3,86H81L99.3,54.4A10.53,10.53,0,1,0,95.5,40a10.76,10.76,0,0,0-1.4,5.3h-68L52.3,0H156.8Z"/><path class="cls-1" d="M182.9,135.8l-26.1,45.3H52.3l-13-22.6L75.9,95.1H128l-18.2,31.6a10.55,10.55,0,1,0,5.3,9.2Z"/><polygon class="cls-1" points="209.1 90.5 188.2 126.7 120.2 126.7 175.1 31.7 209.1 90.5"/><path class="cls-1" d="M291.2,14.8A210.59,210.59,0,0,1,282.1,38v83.3H271.5V57.7a86.54,86.54,0,0,1-8.2,11.6A59.82,59.82,0,0,0,256.9,58c9.7-11.4,18.2-28.9,23.5-46.2ZM331.7,89c0,10.2-4.2,23.6-38,32.6a30.31,30.31,0,0,0-6.8-7.9c32.3-6.7,34.7-17.5,34.7-25V79.5h10.2Zm-9.5-59.3H292.9V21.2h29.3v-10h10.3v10h27.8v8.5H332.5v6.4h24.7V44H332.5v7.2h33v8.3H289.8V51.3h32.4V44H296.6V36.1h25.6V29.7Zm26.3,69.6V73.2H306V99.4H295.9V65.5H359V99.3Zm-12.8.3c10.1,3.4,23.8,9,31,13.1l-5.6,8c-6.7-4.2-20.4-10.2-30.6-13.9Z"/><path class="cls-1" d="M486.5,78.5H440V107c0,7.4-2,10.8-7.1,12.5s-13.2,2-25.6,2a48.27,48.27,0,0,0-4.8-11.5c9.5.4,19,.4,21.7.4s3.7-1,3.7-3.4V78.5H379.4V67.1H428V29.8c-13.1,1.1-26.4,1.7-38.5,2-.1-2.9-1.6-7.4-2.6-10.1,29-1.1,63.4-4,83.9-9l5.6,10.1A296.79,296.79,0,0,1,440,28.7V67.1h46.4ZM401.6,34.8c4.7,7.9,9.5,18.4,11.3,25.1L402.6,64c-1.6-6.7-6.2-17.5-10.7-25.7Zm51.5,25.1a167.7,167.7,0,0,0,12.1-27.4l12,4c-4.8,9.5-10.4,20.2-14.9,27.1Z"/><path class="cls-1" d="M279.4,160.2a9.89,9.89,0,0,1-3.3,7,10.86,10.86,0,0,1-7.7,2.5,11.14,11.14,0,0,1-5.9-1.6,10.83,10.83,0,0,1-4-4.5,16,16,0,0,1-1.4-6.8v-2.6a16.85,16.85,0,0,1,1.4-7,10.66,10.66,0,0,1,10.2-6.3,11.34,11.34,0,0,1,7.5,2.5,10.34,10.34,0,0,1,3.3,7.2h-4.9a7.2,7.2,0,0,0-1.8-4.4,5.87,5.87,0,0,0-4.2-1.3,5.8,5.8,0,0,0-4.9,2.3c-1.1,1.6-1.7,3.8-1.8,6.9v2.5c0,3.1.5,5.4,1.6,7a5.46,5.46,0,0,0,4.8,2.4,6,6,0,0,0,4.3-1.3,6.41,6.41,0,0,0,1.8-4.3Z"/><path class="cls-1" d="M294.3,152.7a12.25,12.25,0,0,0-1.9-.2A4.42,4.42,0,0,0,288,155v14.3h-4.7v-21h4.5l.1,2.3a5.14,5.14,0,0,1,4.7-2.7,5.08,5.08,0,0,1,1.7.3Z"/><path class="cls-1" d="M306.5,169.8a9.64,9.64,0,0,1-7.2-2.8,10.32,10.32,0,0,1-2.8-7.5v-.6a13.42,13.42,0,0,1,1.2-5.6,8.35,8.35,0,0,1,3.4-3.8,9.58,9.58,0,0,1,4.9-1.4,8.61,8.61,0,0,1,6.6,2.7c1.6,1.8,2.3,4.4,2.3,7.7v1.9H301.2a6.85,6.85,0,0,0,1.7,4.1,5,5,0,0,0,3.8,1.5,6.54,6.54,0,0,0,5.3-2.6l2.5,2.4a7.39,7.39,0,0,1-3.4,2.9A9.77,9.77,0,0,1,306.5,169.8Zm-.5-18a4.1,4.1,0,0,0-3.1,1.4,6.67,6.67,0,0,0-1.5,3.8h9v-.4a5.88,5.88,0,0,0-1.3-3.6,4.65,4.65,0,0,0-3.1-1.2Z"/><path class="cls-1" d="M317.7,158.8A12.77,12.77,0,0,1,320,151a7,7,0,0,1,6-2.9,6.9,6.9,0,0,1,5.4,2.3V139.6h4.7v29.8h-4.3l-.2-2.2a7.26,7.26,0,0,1-5.6,2.6,7.39,7.39,0,0,1-6-3A12.89,12.89,0,0,1,317.7,158.8Zm4.7.4a8.65,8.65,0,0,0,1.2,5,4.1,4.1,0,0,0,3.5,1.8,4.25,4.25,0,0,0,4.2-2.6v-8.9a4.41,4.41,0,0,0-4.2-2.5,3.88,3.88,0,0,0-3.5,1.8,10,10,0,0,0-1.2,5.4Z"/><path class="cls-1" d="M341,143a2.41,2.41,0,0,1,.7-1.8,2.49,2.49,0,0,1,2-.7,2.88,2.88,0,0,1,2,.7,2.66,2.66,0,0,1,0,3.6,3.21,3.21,0,0,1-4,0A2.41,2.41,0,0,1,341,143Zm5,26.4h-4.7v-21H346Z"/><path class="cls-1" d="M357,143.3v5.1h3.7v3.5H357v11.7a1.85,1.85,0,0,0,2.2,2.2,7.77,7.77,0,0,0,1.6-.2v3.6a11,11,0,0,1-3.1.4q-5.4,0-5.4-6V151.7h-3.5v-3.5h3.5v-5.1Z"/><path class="cls-1" d="M371.1,141.2l8.1,21.6,8.1-21.6h6.3v28.2h-4.9v-9.3l.5-12.4-8.3,21.7h-3.5l-8.3-21.7.5,12.4v9.3h-4.9V141.2Z"/><path class="cls-1" d="M411.6,169.4a4.55,4.55,0,0,1-.5-2,7.56,7.56,0,0,1-5.5,2.4,7.26,7.26,0,0,1-5.1-1.8,5.91,5.91,0,0,1-2-4.5,5.72,5.72,0,0,1,2.5-5.1c1.7-1.2,4-1.8,7.1-1.8H411v-1.4a3.92,3.92,0,0,0-.9-2.6,3.48,3.48,0,0,0-2.8-1,4,4,0,0,0-2.6.8,2.61,2.61,0,0,0-1,2H399a5.17,5.17,0,0,1,1.1-3.2,8.12,8.12,0,0,1,3.1-2.4,11.17,11.17,0,0,1,4.4-.9,8.55,8.55,0,0,1,5.9,1.9,6.41,6.41,0,0,1,2.2,5.2v9.5a10,10,0,0,0,.8,4.5v.3Zm-5.2-3.4a4.84,4.84,0,0,0,2.6-.7,4.69,4.69,0,0,0,1.9-1.8v-3.9h-2.5a6.63,6.63,0,0,0-3.9.9,2.82,2.82,0,0,0-1.3,2.6,2.72,2.72,0,0,0,.9,2.1A3.09,3.09,0,0,0,406.4,166Z"/><path class="cls-1" d="M432.2,163.7a2.06,2.06,0,0,0-1-1.9,10.63,10.63,0,0,0-3.4-1.2,18.71,18.71,0,0,1-4-1.3c-2.3-1.1-3.5-2.8-3.5-4.9a5.33,5.33,0,0,1,2.3-4.5,8.72,8.72,0,0,1,5.8-1.8,9.62,9.62,0,0,1,6.1,1.9,5.62,5.62,0,0,1,2.3,4.8H432a2.57,2.57,0,0,0-1-2.2,4.19,4.19,0,0,0-2.7-.9,4.3,4.3,0,0,0-2.5.7,2.42,2.42,0,0,0-1,1.9,2,2,0,0,0,.9,1.7,12.34,12.34,0,0,0,3.7,1.2,22.53,22.53,0,0,1,4.4,1.4,6.3,6.3,0,0,1,2.3,2,6,6,0,0,1,.8,2.9,5.64,5.64,0,0,1-2.3,4.6,10.37,10.37,0,0,1-6.1,1.8,12.16,12.16,0,0,1-4.6-.9,7.13,7.13,0,0,1-3.1-2.6,6.3,6.3,0,0,1-1.1-3.5h4.6a3.32,3.32,0,0,0,1.3,2.6,4.91,4.91,0,0,0,3.1.9,4.52,4.52,0,0,0,2.8-.7A3.72,3.72,0,0,0,432.2,163.7Z"/><path class="cls-1" d="M446.9,143.3v5.1h3.7v3.5h-3.7v11.7a1.85,1.85,0,0,0,2.2,2.2,7.77,7.77,0,0,0,1.6-.2v3.6a11,11,0,0,1-3.1.4q-5.4,0-5.4-6V151.7h-3.5v-3.5h3.5v-5.1Z"/><path class="cls-1" d="M463.4,169.8a9.64,9.64,0,0,1-7.2-2.8,10.32,10.32,0,0,1-2.8-7.5v-.6a13.42,13.42,0,0,1,1.2-5.6,8.35,8.35,0,0,1,3.4-3.8,9.58,9.58,0,0,1,4.9-1.4,8.61,8.61,0,0,1,6.6,2.7c1.5,1.8,2.3,4.4,2.3,7.7v1.9H458.1a6.85,6.85,0,0,0,1.7,4.1,5,5,0,0,0,3.8,1.5,6.54,6.54,0,0,0,5.3-2.6l2.5,2.4a7.39,7.39,0,0,1-3.4,2.9A10.39,10.39,0,0,1,463.4,169.8Zm-.6-18a4.1,4.1,0,0,0-3.1,1.4,6.67,6.67,0,0,0-1.5,3.8h9v-.4a5.88,5.88,0,0,0-1.3-3.6,3.93,3.93,0,0,0-3.1-1.2Z"/><path class="cls-1" d="M486.4,152.7a12.25,12.25,0,0,0-1.9-.2c-2.2,0-3.6.8-4.4,2.5v14.3h-4.7v-21h4.5l.1,2.3a5.25,5.25,0,0,1,4.7-2.7,5.08,5.08,0,0,1,1.7.3Z"/></g></g></g></g></svg>